<svg width="960" height="720" viewBox="0 0 960 720" fill="none" xmlns="http://www.w3.org/2000/svg">
  <rect width="960" height="720" fill="#100B05"/>
  <rect x="92" y="178" width="335" height="395" rx="18" fill="#FFD175" fill-opacity=".92"/>
  <rect x="448" y="178" width="335" height="395" rx="18" fill="#FFD175" fill-opacity=".7"/>
  <path d="M426 198C474 166 555 166 610 198V574C552 545 485 545 426 574V198Z" fill="#090806" fill-opacity=".22"/>
  <path d="M158 269H349M158 326H349M158 383H307M522 269H707M522 326H707M522 383H670" stroke="#090806" stroke-opacity=".48" stroke-width="18" stroke-linecap="round"/>
  <circle cx="786" cy="116" r="48" fill="#FFD175"/>
  <path d="M764 116H808M786 94V138" stroke="#100B05" stroke-width="12" stroke-linecap="round"/>
  <text x="58" y="92" fill="#FFD175" font-family="Arial Black, Arial, sans-serif" font-size="52" font-weight="900">READING</text>
  <text x="62" y="640" fill="#FFD175" fill-opacity=".62" font-family="Arial, sans-serif" font-size="22" font-weight="700">Replace with books, desk or exhibition photo</text>
</svg>
